{"title":"Inception.2010.TS.XVID.FEEL-FREE","uid":5729503,"size":1440213358,"categoryP":"video","categoryS":"movies","magnet":"?xt=urn:btih:02a915ccebe2941fc28b4875e43b4c3dff4c7213&amp;dn=Inception.2010.TS.XVID.FEEL-FREE&amp;tr=udp%3A%2F%2Ftracker.openbittorrent.com%3A80&amp;tr=udp%3A%2F%2Fopen.demonii.com%3A1337&amp;tr=udp%3A%2F%2Ftracker.coppersurfer.tk%3A6969&amp;tr=udp%3A%2F%2Fexodus.desync.com%3A6969","seeders":0,"leechers":1,"uploader":"hiest","files":10,"time":1280589739,"description":"Genre:Drama | Mystery | Sci-Fi | Thriller\nLanguage:English\nIMDb:http://www.imdb.com/title/tt1375666/\nSource video:CAMRip *PROPER*.Rus.Thanks\nSource audio:Prism/Own.Thanks\nSample:Yes\n\nComplete name : Inception.2010.TS.XVID.FEEL-FREE.avi\nFormat : AVI\nFormat/Info : Audio Video Interleave\nFormat profile : OpenDML\nFile size : 1.31 GiB\nDuration : 2h 19mn\nVideo\nFormat : xvid\nCodec ID : xvid\nDuration : 2h 19mn\nBit rate : 450 Kbps\nWidth : 720 pixels\nHeight : 304 pixels\nDisplay aspect ratio : 2.35:1\nFrame rate : 25.000 fps\nResolution : 24 bits\nBits/(Pixel*Frame) : 0.082\nStream size : 1.17 GiB (89%)\nAudio #1\nID : 1\nFormat : MPEG Audio\nFormat version : Version 1\nFormat profile : Layer 3\nCodec ID : 55\nCodec ID/Hint : MP3\nDuration : 2h 19mn\nBit rate mode : Constant\nBit rate : 128 Kbps\nChannel(s) : 2 channels\nSampling rate : 48.0 KHz\nResolution : 16 bits\nStream size : 128 MiB (10%)\nAlignment : Aligned on interleaves\nInterleave, duration : 24 ms (0.60 video frame)\nInterleave, preload duration : 24 ms\nWriting library : LAME3.97\nPlot:\nIn a world where technology exists to enter the human mind through dream invasion, a highly skilled thief is given a final chance at redemption which involves executing his toughest job till date, Inception","torrent":{"xt":"urn:btih:02a915ccebe2941fc28b4875e43b4c3dff4c7213","amp;dn":"Inception.2010.TS.XVID.FEEL-FREE","amp;tr":["udp%3A%2F%2Ftracker.openbittorrent.com%3A80","udp%3A%2F%2Fopen.demonii.com%3A1337","udp%3A%2F%2Ftracker.coppersurfer.tk%3A6969","udp%3A%2F%2Fexodus.desync.com%3A6969"],"infoHash":"02a915ccebe2941fc28b4875e43b4c3dff4c7213","infoHashBuffer":{"type":"Buffer","data":[2,169,21,204,235,226,148,31,194,139,72,117,228,59,76,61,255,76,114,19]},"announce":[],"urlList":[]}}